<?xml version="1.0" encoding="UTF-8"?>
<svg xmlns="http://www.w3.org/2000/svg" xmlns:xlink="http://www.w3.org/1999/xlink" viewBox="0 0 500 500">
  <defs>
    <style>
      .cls-1 {
        fill: url(#Degradado_sin_nombre_21);
      }

      .cls-2 {
        font-family: Poppins-SemiBold, Poppins;
        font-size: 40.39px;
        font-weight: 600;
      }

      .cls-3 {
        isolation: isolate;
      }

      .cls-4 {
        letter-spacing: 0em;
      }

      .cls-4, .cls-5 {
        fill: #cf5a7a;
      }

      .cls-5 {
        font-family: Poppins-Regular, Poppins;
        font-size: 11.78px;
        letter-spacing: .4em;
      }

      .cls-6 {
        fill: url(#Degradado_sin_nombre_19);
      }

      .cls-6, .cls-7 {
        mix-blend-mode: multiply;
      }

      .cls-8 {
        fill: #363636;
        letter-spacing: 0em;
      }

      .cls-7 {
        fill: url(#Degradado_sin_nombre_19-2);
      }
    </style>
    <linearGradient id="Degradado_sin_nombre_21" data-name="Degradado sin nombre 21" x1="91.65" y1="139.47" x2="143.92" y2="87.2" gradientUnits="userSpaceOnUse">
      <stop offset="0" stop-color="#cf5a7a"/>
      <stop offset=".87" stop-color="#e695a5"/>
    </linearGradient>
    <linearGradient id="Degradado_sin_nombre_19" data-name="Degradado sin nombre 19" x1="125.07" y1="137.47" x2="166.94" y2="137.47" gradientUnits="userSpaceOnUse">
      <stop offset="0" stop-color="#79b0d7"/>
      <stop offset="1" stop-color="#4f79b9"/>
    </linearGradient>
    <linearGradient id="Degradado_sin_nombre_19-2" data-name="Degradado sin nombre 19" x1="518.32" x2="560.19" gradientTransform="translate(628.77) rotate(-180) scale(1 -1)" xlink:href="#Degradado_sin_nombre_19"/>
  </defs>
  <g class="cls-3">
    <g id="OBJECTS">
      <g>
        <g>
          <text class="cls-2" transform="translate(180.3 130.84)"><tspan class="cls-8" x="0" y="0">Medi</tspan><tspan class="cls-4" x="99.03" y="0">Core</tspan></text>
          <text class="cls-5" transform="translate(203.26 154.27)"><tspan x="0" y="0">VITAL WELLNESS</tspan></text>
        </g>
        <g>
          <path class="cls-1" d="m157.91,110.04c0-11.8-9.57-21.37-21.37-21.37-8.1,0-15.15,4.51-18.77,11.15-3.62-6.64-10.67-11.15-18.77-11.15-11.8,0-21.37,9.57-21.37,21.37,0,.75.04,1.5.12,2.23h0s-.4,17.5,39.07,51.2c0,0,.92.96,2.04,0,25.99-22.19,34.57-37.35,37.39-45.13,1.08-2.55,1.67-5.36,1.67-8.31Z"/>
          <g>
            <path class="cls-6" d="m131.88,162.36c-2.6,2.26-6.66.49-6.78-2.95-.26-7.55.98-18.7,8.75-25.39,7.77-6.68,10.69-10.28,11.54-11.74.23-.4.77-.47,1.09-.13.72.77,1.53,2.47.25,5.84-1.7,4.47-5.02,7.29-6.36,11.15-.23.65.5,1.22,1.06.81,4.59-3.34,16.06-13.82,23.29-27.74.58-1.11,2.27-.71,2.23.54-.2,7.06-4.81,23.32-35.07,49.6Z"/>
            <path class="cls-7" d="m103.65,162.36c2.6,2.26,6.66.49,6.78-2.95.26-7.55-.98-18.7-8.75-25.39-7.77-6.68-10.69-10.28-11.54-11.74-.23-.4-.77-.47-1.09-.13-.72.77-1.53,2.47-.25,5.84,1.7,4.47,5.02,7.29,6.36,11.15.23.65-.5,1.22-1.06.81-4.59-3.34-16.06-13.82-23.29-27.74-.58-1.11-2.27-.71-2.23.54.2,7.06,4.81,23.32,35.07,49.6Z"/>
          </g>
        </g>
      </g>
    </g>
  </g>
</svg>